# xmcd
#
# Track frame offsets: 
#        150
#        11360
#        21352
#        32742
#        43922
#        56820
#        67640
#        80615
#        93252
#        105112
#        114727
#        125540
#        138340
#        151430
#        164365
#        174725
#
# Disc length: 2475 seconds
#
# Revision: 1
# Processed by: cddbd v1.5.2PL0 Copyright (c) Steve Scherf et al.
# Submitted via: ExactAudioCopy v1.0b1
#
DISCID=cb09a910
DTITLE=Various Artist - A Package Of 16 Original Big Hits
DYEAR=1963
DGENRE=R&B
TTITLE0=Martha and The Vandellas - Come And Get These Memories
TTITLE1=The Marvelettes - Beechwood 45789
TTITLE2=Mary Wells - The One Who Really Loves You
TTITLE3=Eddie Holland - Jamie
TTITLE4=Marvin Gaye - A Stubborn Kind Of Fellow
TTITLE5=Stevie Wonder - Contract On Love
TTITLE6=The Contours - Do You Love Me
TTITLE7=The Miracles - Shop Around
TTITLE8=Barrett Strong - Money
TTITLE9=Marvin Gaye - Pride And Joy
TTITLE10=The Marvelettes - Please Mr Postman
TTITLE11=Mary Wells - You Beat Me To The Punch
TTITLE12=The Miracles - You Really Got A Hold On Me
TTITLE13=Kim Weston - Love Me All The Way
TTITLE14=Stevie Wonder - Sunset
TTITLE15=The Supremes - Your Heart Belongs To Me
EXTD=
EXTT0=
EXTT1=
EXTT2=
EXTT3=
EXTT4=
EXTT5=
EXTT6=
EXTT7=
EXTT8=
EXTT9=
EXTT10=
EXTT11=
EXTT12=
EXTT13=
EXTT14=
EXTT15=
PLAYORDER=
